<?xml version="1.0" encoding="UTF-8" standalone="no"?>
<svg width="7px" height="13px" viewBox="0 0 7 13" version="1.1" xmlns="http://www.w3.org/2000/svg" xmlns:xlink="http://www.w3.org/1999/xlink" xmlns:sketch="http://www.bohemiancoding.com/sketch/ns">
    <!-- Generator: Sketch 3.3.1 (12002) - http://www.bohemiancoding.com/sketch -->
    <title>arrow right</title>
    <desc>Created with Sketch.</desc>
    <defs></defs>
    <g id="Page-1" stroke="none" stroke-width="1" fill="none" fill-rule="evenodd" sketch:type="MSPage">
        <g id="Your_Icon-Copy" sketch:type="MSLayerGroup" transform="translate(7.256757, 7.941176) rotate(-180.000000) translate(-7.256757, -7.941176) translate(4.500000, 1.941176)"></g>
        <path d="M0.25101277,2.08369096 L4.18548165,6.80308861 L4.18548165,6.19688755 L0.25101277,10.9162852 C-0.0901216383,11.3260678 -0.0346741196,11.9337577 0.373840171,12.2754407 C0.782958432,12.6176287 1.39257716,12.5624292 1.73406173,12.1528286 L5.93090756,7.11824089 C6.07690934,6.94409711 6.15488242,6.72490611 6.15488242,6.49998808 C6.15488242,6.27495595 6.07693118,6.0559051 5.93005316,5.88071324 L1.73407935,0.847168687 C1.39259303,0.437565942 0.783220522,0.382380303 0.373971809,0.724425435 C-0.0352590152,1.06630304 -0.0905146814,1.67355723 0.250841373,2.08348525 L0.25101277,2.08369096 Z M0.978322679,1.47769561 C0.97129929,1.46926136 0.972312011,1.45813166 0.980995864,1.45087703 C0.988645491,1.44448358 1.00042154,1.44555004 1.0069307,1.45335759 L5.20374129,6.48790302 C5.20703998,6.49184053 5.20819866,6.49509654 5.20819866,6.49998808 C5.20819866,6.50480205 5.20699277,6.50819194 5.20459569,6.5110511 L1.00691308,11.5466397 C1.00044607,11.5543967 0.988610989,11.5554683 0.981207235,11.5492758 C0.972767301,11.5422166 0.971676701,11.5302639 0.978366649,11.5222277 L4.91262016,6.80308861 L5.1653091,6.49998808 L4.91262016,6.19688755 L0.978151283,1.4774899 L0.978322679,1.47769561 Z" id="Shape" fill="#7F7F7F" sketch:type="MSShapeGroup"></path>
    </g>
</svg>