<?xml version="1.0" encoding="UTF-8" standalone="no"?>
<svg width="46px" height="46px" viewBox="0 0 46 46" version="1.1" xmlns="http://www.w3.org/2000/svg" xmlns:xlink="http://www.w3.org/1999/xlink" xmlns:sketch="http://www.bohemiancoding.com/sketch/ns">
    <!-- Generator: Sketch 3.3.1 (12002) - http://www.bohemiancoding.com/sketch -->
    <title>avatar</title>
    <desc>Created with Sketch.</desc>
    <defs></defs>
    <g id="Page-1" stroke="none" stroke-width="1" fill="none" fill-rule="evenodd" sketch:type="MSPage">
        <g id="Shape-+-Shape-Copy" sketch:type="MSLayerGroup" transform="translate(-0.459606, 0.000000)" fill="#F6F6F6">
            <path d="M23,0.4985 C10.5725,0.4985 0.4985,10.5725 0.4985,23 C0.4985,35.4275 10.5725,45.5015 23,45.5015 C35.427,45.5015 45.5015,35.4275 45.5015,23 C45.5015,10.5725 35.427,0.4985 23,0.4985 L23,0.4985 Z M36.2085,37.5065 C32.401,35.002 27.8985,33.471 23,33.471 C18.1015,33.471 13.599,35.0025 9.7915,37.5065 C5.845,33.91 3.3495,28.747 3.3495,23 C3.3495,12.1655 12.1655,3.35 23,3.35 C33.835,3.35 42.6505,12.1655 42.6505,23 C42.6505,28.747 40.1545,33.91 36.2085,37.5065 L36.2085,37.5065 Z" id="Shape" sketch:type="MSShapeGroup"></path>
            <path d="M23,8.4655 C18.382,8.4655 14.604,12.4755 14.604,17.377 L14.604,21.9815 C14.604,26.883 18.3825,30.893 23,30.893 C27.6175,30.893 31.3955,26.883 31.3955,21.9815 L31.3955,17.377 C31.396,12.4755 27.6175,8.4655 23,8.4655 L23,8.4655 Z" id="Shape" sketch:type="MSShapeGroup"></path>
        </g>
    </g>
</svg>