<?xml version="1.0" encoding="UTF-8" standalone="no"?>
<svg width="16px" height="12px" viewBox="0 0 16 12" version="1.1" xmlns="http://www.w3.org/2000/svg" xmlns:xlink="http://www.w3.org/1999/xlink" xmlns:sketch="http://www.bohemiancoding.com/sketch/ns">
    <!-- Generator: Sketch 3.3.1 (12002) - http://www.bohemiancoding.com/sketch -->
    <title>cloud</title>
    <desc>Created with Sketch.</desc>
    <defs></defs>
    <g id="Page-1" stroke="none" stroke-width="1" fill="none" fill-rule="evenodd" sketch:type="MSPage">
        <path d="M13.994,4.556 L14,4.5 C14,2.015 11.985,0 9.5,0 C7.83,0 6.388,0.92 5.612,2.271 C5.275,2.104 4.902,2 4.5,2 C3.119,2 2,3.119 2,4.5 L2.005,4.556 C0.814,5.25 0,6.528 0,8 C0,10.2 1.799,12 3.999,12 L12,12 C14.2,12 15.999,10.2 15.999,8 C15.999,6.528 15.185,5.25 13.994,4.556 L13.994,4.556 Z M12,11 L3.999,11 C2.345,11 0.999,9.654 0.999,8 C0.999,6.951 1.578,5.963 2.509,5.42 L3.005,5.13 L3.005,4.556 L3.001,4.451 C3.026,3.647 3.689,3 4.5,3 C4.72,3 4.944,3.057 5.165,3.166 L6.009,3.588 L6.479,2.769 C7.116,1.662 8.245,1 9.5,1 C11.399,1 12.949,2.52 12.999,4.408 L12.995,4.469 L12.994,4.477 L12.994,5.13 L13.49,5.42 C14.421,5.963 15,6.951 15,8 C15,9.654 13.654,11 12,11 L12,11 Z" id="Imported-Layers" fill="#939393" sketch:type="MSShapeGroup"></path>
    </g>
</svg>