<?xml version="1.0" encoding="UTF-8" standalone="no"?>
<svg width="16px" height="10px" viewBox="0 0 16 10" version="1.1" xmlns="http://www.w3.org/2000/svg" xmlns:xlink="http://www.w3.org/1999/xlink" xmlns:sketch="http://www.bohemiancoding.com/sketch/ns">
    <!-- Generator: Sketch 3.3.1 (12002) - http://www.bohemiancoding.com/sketch -->
    <title>oeil</title>
    <desc>Created with Sketch.</desc>
    <defs></defs>
    <g id="Page-1" stroke="none" stroke-width="1" fill="none" fill-rule="evenodd" sketch:type="MSPage">
        <g id="Imported-Layers" sketch:type="MSLayerGroup" fill="#939393">
            <path d="M8.001,0 C2.001,0 0.001,5 0.001,5 C0.001,5 2.001,10 8.001,10 C14.001,10 16,5 16,5 C16,5 14.001,0 8.001,0 L8.001,0 Z M8.001,9 C3.634,9 1.674,6.062 1.108,5 C1.676,3.935 3.637,1 8.001,1 C12.367,1 14.327,3.938 14.893,5 C14.325,6.065 12.364,9 8.001,9 L8.001,9 Z" id="Fill-1" sketch:type="MSShapeGroup"></path>
            <path d="M8.001,5 L8.001,2 C6.344,2 5.001,3.343 5.001,5 C5.001,6.657 6.344,8 8.001,8 C9.657,8 11.001,6.657 11.001,5 C11.001,4.171 10.665,3.421 10.122,2.879 L8.001,5" id="Fill-2" sketch:type="MSShapeGroup"></path>
        </g>
    </g>
</svg>