<?xml version="1.0" encoding="UTF-8" standalone="no"?>
<svg width="12px" height="12px" viewBox="0 0 12 12" version="1.1" xmlns="http://www.w3.org/2000/svg" xmlns:xlink="http://www.w3.org/1999/xlink" xmlns:sketch="http://www.bohemiancoding.com/sketch/ns">
    <!-- Generator: Sketch 3.3.1 (12002) - http://www.bohemiancoding.com/sketch -->
    <title>planet</title>
    <desc>Created with Sketch.</desc>
    <defs></defs>
    <g id="Page-1" stroke="none" stroke-width="1" fill="none" fill-rule="evenodd" sketch:type="MSPage">
        <g id="Imported-Layers" sketch:type="MSLayerGroup" transform="translate(3.540394, -0.000011)"></g>
        <g id="Group" sketch:type="MSLayerGroup" fill="#7F7F7F">
            <path d="M6,0 C2.688,0 0,2.6872 0,6 C0,9.312 2.688,12 6,12 C9.3128,12 12,9.312 12,6 C12,2.6872 9.3128,0 6,0 L6,0 Z M8.4088,8.6392 L8.3664,8.828 L8.3464,8.788 C8.0808,9.004 8.084,9.6152 7.7232,9.768 C7.5296,9.8488 7.5536,9.5872 7.6264,9.4952 C7.7336,9.3576 7.5864,9.268 7.6536,9.1328 L7.6408,9.1256 L7.6392,9.1264 L7.6392,9.1248 C7.5736,9.1088 7.5104,8.9456 7.5104,8.8528 C7.588,8.8392 7.628,8.792 7.6336,8.82 L7.744,8.6128 C7.768,8.7504 7.5704,9.0168 7.6392,9.1248 L7.6408,9.1256 L7.712,9.08 C7.712,9.1528 7.728,9.2216 7.7576,9.288 C7.6736,8.9584 8.0088,8.948 8.1608,8.7528 C8.2184,8.6776 8.312,8.4688 8.3856,8.4376 L8.412,8.6256 L8.4088,8.6392 L8.4088,8.6392 Z M10.0768,4.7608 C9.9488,4.5576 9.8672,4.2328 9.6816,4.0776 L9.696,4.248 C9.5984,4.2192 9.52,4.164 9.4632,4.0776 C9.4536,4.0392 9.5624,4.1312 9.5016,4.0136 C9.348,4.0344 9.2376,3.8752 9.112,3.7872 C8.8912,3.7584 8.6504,3.9448 8.4248,3.8128 C8.372,3.7816 8.3224,3.6 8.24,3.7056 L8.0872,3.7416 C7.8344,3.6656 7.7256,3.4488 7.4976,3.4424 C7.4992,3.54 7.6624,3.6824 7.7392,3.7272 C7.8408,3.7856 7.912,4.0408 7.9248,3.8128 C8.0696,3.8968 7.9664,4.0824 8.1728,4.0136 C8.3304,4.0744 8.288,3.8232 8.3208,3.748 L8.4368,3.9392 C8.5192,4.0152 8.636,3.9856 8.712,4.0648 C8.808,4.1648 8.8632,4.3088 8.8392,4.4288 C8.7496,4.4216 8.8208,4.5368 8.7648,4.6248 C8.7032,4.7168 8.7088,4.7376 8.6704,4.8376 C8.5648,4.864 8.4384,4.912 8.4584,5.0512 C8.384,5.1408 7.7216,5.62 7.6336,5.4888 C7.5264,5.3264 7.4992,5.1008 7.412,4.9288 C7.2824,4.8856 7.012,4.556 6.9592,4.4288 C6.9984,4.2048 6.4064,3.764 6.3104,3.7608 C6.3808,4.0656 6.6432,4.2264 6.7648,4.4616 C6.8664,4.6632 7.0552,5.1368 7.212,5.2016 C7.4736,5.176 7.6352,5.6512 7.7744,5.7496 C7.9568,5.876 8.3304,5.4656 8.4896,5.5064 C8.5072,5.7216 8.5032,5.7864 8.4376,6.0248 C8.3048,6.512 8.0808,6.7232 7.7928,7.1184 C7.6264,7.3456 7.5184,7.5064 7.3936,7.756 C7.296,7.9536 7.5816,8.3672 7.5032,8.4768 C7.5456,8.8 7.4664,8.9888 7.188,9.1496 C6.984,9.2688 6.808,9.3808 6.8768,9.6048 C6.9464,9.828 6.668,9.8632 6.6352,9.9888 C6.5504,10.1968 6.432,10.3072 6.2888,10.3856 C6.1928,10.392 6.0976,10.4 6,10.4 C5.8256,10.4 5.6536,10.3864 5.4832,10.3672 C5.2568,10.084 5.0224,9.784 4.78,9.5016 C4.6328,9.3328 4.4336,9.0248 4.6488,8.8072 C4.6728,8.6672 4.504,8.3416 4.4296,8.2176 C4.3032,8.0072 3.7232,7.5528 3.9496,7.3088 C3.9808,7.148 3.8392,6.988 3.8392,6.8616 C3.716,6.7624 3.5904,6.9944 3.4696,6.784 C3.3416,6.5592 3.1088,6.6208 2.916,6.7592 L2.2896,6.8264 C1.8816,6.4624 1.752,5.8912 1.8936,5.4016 C1.9512,5.1984 1.9584,4.8376 2.12,4.7016 C2.1728,4.4904 2.4168,4.2824 2.5464,4.1088 C2.6152,4.016 2.728,4.0072 2.808,3.912 C2.9296,3.7704 2.988,3.6016 3.144,3.4752 C3.3016,3.3504 3.64,3.1376 3.3528,3.092 C3.4664,2.9248 3.6488,2.7416 3.716,2.5408 C3.8144,2.4624 3.9984,2.4952 4.1096,2.4408 C4.2048,2.2448 4.244,2.2512 4.208,2.1264 C4.228,2.0464 4.4808,1.9856 4.5344,1.9656 C4.6352,1.9264 4.724,1.8344 4.8144,1.7672 C5.1928,1.6608 5.5896,1.6 6,1.6 C8.1848,1.6 9.9976,3.2016 10.3376,5.2904 C10.2376,5.0984 10.1496,4.8744 10.0768,4.7608 L10.0768,4.7608 Z" id="Fill-1" sketch:type="MSShapeGroup"></path>
            <path d="M5.19804908,2.05963971 L5.23479908,2.01688971 C5.10354908,2.06563971 5.18904908,1.92238971 5.06529908,2.06563971 C5.09754908,2.17438971 4.95354908,2.24713971 5.01579908,2.36263971 C5.14404908,2.47138971 5.27229908,2.30413971 5.39829908,2.28388971 C5.39754908,2.35813971 5.66304908,2.34688971 5.70204908,2.35738971 C5.63154908,2.33938971 5.72679908,2.34238971 5.70204908,2.35738971 C5.94354908,2.20738971 5.20629908,2.06488971 5.19804908,2.05963971" id="Fill-2" sketch:type="MSShapeGroup"></path>
            <path d="M5.079,2.65023928 C5.088,2.59023928 5.016,2.58573928 4.98825,2.50923928 C5.08425,2.39523928 4.905,2.45223928 5.001,2.32773928 L4.85475,2.32773928 C4.8345,2.41023928 4.89525,2.38098928 4.78725,2.35773928 C4.75125,2.44623928 4.87125,2.50698928 4.85475,2.58873928 L4.806,2.57073928 C4.79025,2.63073928 4.8015,2.61648928 4.8,2.71023928 C4.6335,2.67948928 4.72425,2.55273928 4.581,2.37048928 C4.71075,2.26698928 4.3125,2.06448928 4.36875,1.99998928 C4.0875,2.07498928 4.59225,2.36973928 4.51425,2.43723928 C4.38375,2.36298928 4.4775,2.46648928 4.39875,2.55423928 C4.284,2.68548928 4.29375,2.72898928 4.11825,2.66223928 C4.11075,2.51598928 4.44825,2.64573928 4.29375,2.37948928 C4.21725,2.24748928 4.143,2.09073928 3.9975,2.18748928 C3.8595,2.27823928 3.61125,2.33073928 3.50475,2.52873928 L3,2.96673928 C3.171,3.10548928 3.846,2.55498928 4.01475,2.71698928 C4.00425,2.83098928 3.87225,2.91723928 3.86925,3.03273928 L3.99075,3.11148928 C4.21425,3.06348928 4.15425,3.21723928 4.31925,3.25773928 C4.5945,3.32523928 4.38375,3.27423928 4.55775,3.10248928 C4.61475,3.04698928 4.9185,3.05298928 4.93275,3.14823928 C4.92375,3.08898928 5.06025,3.12498928 4.93275,3.14823928 C5.0685,3.12348928 5.19825,3.25923928 5.29875,3.15873928 C5.37075,3.08823928 5.42925,3.10248928 5.4825,3.14148928 C5.72775,3.31923928 5.64525,2.62848928 5.652,2.59548928 C5.56725,2.65023928 5.07525,2.70123928 5.079,2.65023928 L5.079,2.65023928 Z M3.9975,2.54673928 L3.912,2.56473928 C3.9345,2.49348928 4.038,2.23998928 4.101,2.22948928 C4.0965,2.32098928 4.0125,2.45223928 3.9975,2.54673928 L3.9975,2.54673928 Z" id="Fill-3" sketch:type="MSShapeGroup"></path>
            <path d="M6.1575,2.15971254 L6.23175,2.08621254 C6.18975,1.90321254 6,2.05096254 6,2.16646254 C6.07125,2.25271254 6.35925,2.40271254 6.37725,2.48221254 C6.3105,2.50771254 6.3945,2.70946254 6.49875,2.70121254 C6.573,2.76421254 6.65625,2.77621254 6.74775,2.73796254 C6.72375,2.56696254 6.297,2.23246254 6.1575,2.15971254" id="Fill-4" sketch:type="MSShapeGroup"></path>
            <path d="M7.22425,2.18898928 C7.156,2.17323928 7.08325,2.02173928 7.01125,1.99998928 L7,2.06148928 C7.02625,2.10498928 7.14475,2.27298928 7.22425,2.18898928" id="Fill-5" sketch:type="MSShapeGroup"></path>
            <path d="M4.06675,1.99998928 L4.00525,2.04573928 L4,2.05473928 L4.06675,1.99998928" id="Fill-6" sketch:type="MSShapeGroup"></path>
        </g>
    </g>
</svg>