<?xml version="1.0" encoding="UTF-8" standalone="no"?>
<svg width="17px" height="13px" viewBox="0 0 17 13" version="1.1" xmlns="http://www.w3.org/2000/svg" xmlns:xlink="http://www.w3.org/1999/xlink" xmlns:sketch="http://www.bohemiancoding.com/sketch/ns">
    <!-- Generator: Sketch 3.3.1 (12002) - http://www.bohemiancoding.com/sketch -->
    <title>refresh</title>
    <desc>Created with Sketch.</desc>
    <defs></defs>
    <g id="Page-1" stroke="none" stroke-width="1" fill="none" fill-rule="evenodd" sketch:type="MSPage">
        <path d="M12.0455897,2.50613556 C10.7367897,1.21330915 8.99492299,0.499989276 7.14212299,0.499989276 C5.29038966,0.499989276 3.54852299,1.21330915 2.24078966,2.50613556 C0.93092299,3.80001562 0.208789657,5.51956957 0.208789657,7.34870295 C0.208789657,9.17783632 0.93092299,10.8973903 2.24078966,12.1912703 C2.44878966,12.3967317 2.72185632,12.4999893 2.99492299,12.4999893 C3.26798966,12.4999893 3.54105632,12.3967317 3.74905632,12.1912703 C4.16505632,11.7792939 4.16505632,11.1123345 3.74905632,10.7014117 C2.84238966,9.80581068 2.34212299,8.61518815 2.34212299,7.34870295 C2.34212299,6.08221774 2.84238966,4.89159521 3.74905632,3.99599419 C4.65465632,3.10039317 5.85998966,2.60728579 7.14212299,2.60728579 C8.42532299,2.60728579 9.62958966,3.10039317 10.5362563,3.99599419 C11.209323,4.65979259 11.654123,5.48690648 11.8407897,6.38672209 L9.54212299,8.92917533 L16.2087897,8.92917533 L16.2087897,1.55363753 L13.478123,4.57444709 C13.1378563,3.81371304 12.658923,3.1119833 12.0455897,2.50613556 Z" id="Imported-Layers" fill="#7F7F7F" sketch:type="MSShapeGroup"></path>
    </g>
</svg>